<svg width="139" height="36" viewBox="0 0 139 36" fill="none" xmlns="http://www.w3.org/2000/svg">
<path d="M15.5 1.44338C15.8094 1.26474 16.1906 1.26474 16.5 1.44338L30.0885 9.28867C30.3979 9.46731 30.5885 9.79744 30.5885 10.1547V25.8453C30.5885 26.2026 30.3979 26.5327 30.0885 26.7113L16.5 34.5566C16.1906 34.7353 15.8094 34.7353 15.5 34.5566L1.91154 26.7113C1.60214 26.5327 1.41154 26.2026 1.41154 25.8453V10.1547C1.41154 9.79743 1.60214 9.46731 1.91154 9.28867L15.5 1.44338Z" fill="#009EFF" stroke="#E0E0E0" stroke-width="2"/>
<path d="M15.5 1.44338C15.8094 1.26474 16.1906 1.26474 16.5 1.44338L30.0885 9.28867C30.3979 9.46731 30.5885 9.79744 30.5885 10.1547V25.8453C30.5885 26.2026 30.3979 26.5327 30.0885 26.7113L16.5 34.5566C16.1906 34.7353 15.8094 34.7353 15.5 34.5566L1.91154 26.7113C1.60214 26.5327 1.41154 26.2026 1.41154 25.8453V10.1547C1.41154 9.79743 1.60214 9.46731 1.91154 9.28867L15.5 1.44338Z" fill="#009EFF" stroke="#E0E0E0" stroke-width="2"/>
<path d="M19.1484 15.8906C19.1484 15.0156 18.8229 14.2734 18.1719 13.6641C17.526 13.0547 16.7135 12.75 15.7344 12.75C15.0469 12.75 14.4661 12.8333 13.9922 13C13.5234 13.1615 13.0312 13.3984 12.5156 13.7109C12.3125 13.8359 12.2109 13.9974 12.2109 14.1953C12.2109 14.362 12.2734 14.513 12.3984 14.6484C12.5286 14.7786 12.6745 14.8438 12.8359 14.8438C12.9141 14.8438 12.9896 14.8255 13.0625 14.7891C13.1094 14.763 13.2526 14.6797 13.4922 14.5391C13.737 14.3932 13.9193 14.2943 14.0391 14.2422C14.1641 14.1901 14.3724 14.1328 14.6641 14.0703C14.9609 14.0078 15.2812 13.9766 15.625 13.9766C16.2031 13.9766 16.6901 14.1667 17.0859 14.5469C17.487 14.9219 17.6875 15.4167 17.6875 16.0312C17.6875 16.3958 17.5885 16.7604 17.3906 17.125C17.1927 17.4844 16.8828 17.8802 16.4609 18.3125L12.3984 22.4297C12.1536 22.6745 12.0312 22.9297 12.0312 23.1953C12.0312 23.4245 12.125 23.6172 12.3125 23.7734C12.5 23.9245 12.7474 24 13.0547 24H18.4297C18.6224 24 18.7734 23.9427 18.8828 23.8281C18.9922 23.7083 19.0469 23.5677 19.0469 23.4062C19.0469 23.2448 18.9922 23.1068 18.8828 22.9922C18.7734 22.8724 18.6224 22.8125 18.4297 22.8125H13.7266L17.2969 19.3359C17.9583 18.7266 18.4323 18.151 18.7188 17.6094C19.0052 17.0677 19.1484 16.4948 19.1484 15.8906Z" fill="white"/>
<path d="M48.6523 22.1523C49.6367 22.1523 50.4707 21.9238 51.1543 21.4668C51.373 21.3145 51.4824 21.1172 51.4824 20.875C51.4824 20.7031 51.4258 20.5508 51.3125 20.418C51.2031 20.2852 51.0684 20.2188 50.9082 20.2188C50.8262 20.2188 50.7441 20.2402 50.6621 20.2832C50.0371 20.623 49.4551 20.793 48.916 20.793C48.1035 20.793 47.4805 20.5293 47.0469 20.002C46.6172 19.4707 46.4023 18.7168 46.4023 17.7402C46.4023 16.7129 46.6172 15.9453 47.0469 15.4375C47.4766 14.9297 48.0879 14.6758 48.8809 14.6758C49.0332 14.6758 49.1797 14.6855 49.3203 14.7051C49.4609 14.7246 49.5938 14.7539 49.7188 14.793C49.8438 14.8281 49.9453 14.8613 50.0234 14.8926C50.1055 14.9199 50.2012 14.959 50.3105 15.0098C50.4238 15.0605 50.4961 15.0918 50.5273 15.1035C50.6094 15.1348 50.6836 15.1504 50.75 15.1504C50.9258 15.1504 51.0781 15.0801 51.207 14.9395C51.3359 14.7988 51.4004 14.6387 51.4004 14.459C51.4004 14.2012 51.2656 13.998 50.9961 13.8496C50.2773 13.4902 49.5449 13.3105 48.7988 13.3105C48.2051 13.3105 47.6523 13.416 47.1406 13.627C46.6328 13.834 46.1934 14.127 45.8223 14.5059C45.4512 14.8848 45.1602 15.3555 44.9492 15.918C44.7383 16.4805 44.6328 17.1016 44.6328 17.7812C44.6328 18.6523 44.8066 19.4219 45.1543 20.0898C45.5059 20.7539 45.9844 21.2637 46.5898 21.6191C47.1992 21.9746 47.8867 22.1523 48.6523 22.1523ZM56.709 20.8281C55.9199 20.8281 55.332 20.5625 54.9453 20.0312C54.5625 19.4961 54.3711 18.7305 54.3711 17.7344C54.3711 16.7461 54.5645 15.9844 54.9512 15.4492C55.3379 14.9102 55.9238 14.6406 56.709 14.6406C57.498 14.6406 58.084 14.9082 58.4668 15.4434C58.8535 15.9785 59.0469 16.7422 59.0469 17.7344C59.0469 18.7305 58.8535 19.4961 58.4668 20.0312C58.0801 20.5625 57.4941 20.8281 56.709 20.8281ZM56.709 22.1523C58.0254 22.1523 59.0391 21.7598 59.75 20.9746C60.4609 20.1895 60.8164 19.1094 60.8164 17.7344C60.8164 16.3594 60.4609 15.2793 59.75 14.4941C59.0391 13.7051 58.0254 13.3105 56.709 13.3105C55.4004 13.3105 54.3887 13.7051 53.6738 14.4941C52.959 15.2793 52.6016 16.3594 52.6016 17.7344C52.6016 19.1094 52.959 20.1895 53.6738 20.9746C54.3887 21.7598 55.4004 22.1523 56.709 22.1523ZM63.1367 22C63.3398 22 63.5176 21.9316 63.6699 21.7949C63.8223 21.6582 63.8984 21.4805 63.8984 21.2617V16.0703L67.7246 21.3672C67.8535 21.5508 68.0156 21.7031 68.2109 21.8242C68.4062 21.9414 68.5879 22 68.7559 22C69.0215 22 69.2363 21.8945 69.4004 21.6836C69.5645 21.4688 69.6465 21.1934 69.6465 20.8574V14.2891C69.6465 14.0664 69.5703 13.8867 69.418 13.75C69.2695 13.6133 69.0957 13.5449 68.8965 13.5449C68.6934 13.5449 68.5156 13.6152 68.3633 13.7559C68.2148 13.8926 68.1406 14.0703 68.1406 14.2891V19.4805L64.2852 14.1426C64.1641 13.959 64.0078 13.8145 63.8164 13.709C63.6289 13.6035 63.4473 13.5508 63.2715 13.5508C63.0215 13.5508 62.8105 13.6426 62.6387 13.8262C62.4707 14.0059 62.3867 14.252 62.3867 14.5645V21.2617C62.3867 21.4844 62.4609 21.6641 62.6094 21.8008C62.7617 21.9336 62.9375 22 63.1367 22ZM72.4238 22C72.6543 22 72.8535 21.9199 73.0215 21.7598C73.1895 21.5996 73.2734 21.3887 73.2734 21.127V18.3086H76.2676C76.459 18.3086 76.6094 18.2461 76.7188 18.1211C76.8281 17.9922 76.8828 17.8379 76.8828 17.6582C76.8828 17.4824 76.8262 17.3301 76.7129 17.2012C76.6035 17.0723 76.4551 17.0078 76.2676 17.0078H73.2734V14.875H76.4375C76.625 14.875 76.7734 14.8086 76.8828 14.6758C76.9961 14.543 77.0527 14.3887 77.0527 14.2129C77.0527 14.0371 76.9961 13.8828 76.8828 13.75C76.7734 13.6172 76.625 13.5508 76.4375 13.5508H72.4766C72.2305 13.5508 72.0215 13.6309 71.8496 13.791C71.6777 13.9473 71.5918 14.1562 71.5918 14.418V21.127C71.5918 21.3887 71.6719 21.5996 71.832 21.7598C71.9961 21.9199 72.1934 22 72.4238 22ZM79.3848 21.9941C79.6152 21.9941 79.8145 21.9141 79.9824 21.7539C80.1504 21.5938 80.2344 21.3828 80.2344 21.1211V14.4121C80.2344 14.1504 80.1504 13.9395 79.9824 13.7793C79.8145 13.6191 79.6172 13.5391 79.3906 13.5391C79.1641 13.5391 78.9668 13.6191 78.7988 13.7793C78.6348 13.9395 78.5527 14.1504 78.5527 14.4121V21.1211C78.5527 21.3828 78.6348 21.5938 78.7988 21.7539C78.9629 21.9141 79.1582 21.9941 79.3848 21.9941ZM83.1113 21.9941C83.3418 21.9941 83.5391 21.918 83.7031 21.7656C83.8711 21.6133 83.9551 21.4004 83.9551 21.127V18.3789H85.4902H85.5137C85.7871 18.3789 86.0117 18.4043 86.1875 18.4551C86.3672 18.5059 86.5117 18.5918 86.6211 18.7129C86.7305 18.8301 86.8105 18.9707 86.8613 19.1348C86.9121 19.2988 86.9512 19.5117 86.9785 19.7734L87.125 21.127C87.1523 21.4121 87.25 21.6289 87.418 21.7773C87.5859 21.9219 87.7871 21.9941 88.0215 21.9941C88.248 21.9941 88.4355 21.9199 88.584 21.7715C88.7363 21.623 88.8125 21.416 88.8125 21.1504C88.8125 21.084 88.8105 21.0332 88.8066 20.998L88.6426 19.6152C88.5801 19.0605 88.4141 18.623 88.1445 18.3027C87.8789 17.9785 87.4746 17.7637 86.9316 17.6582V17.6348C87.5684 17.5332 88.0449 17.3105 88.3613 16.9668C88.6777 16.6191 88.8359 16.1953 88.8359 15.6953C88.8359 14.2617 87.8066 13.5449 85.748 13.5449H83.1641C82.918 13.5449 82.707 13.627 82.5312 13.791C82.3594 13.9512 82.2734 14.1562 82.2734 14.4062V21.127C82.2734 21.3965 82.3555 21.6094 82.5195 21.7656C82.6836 21.918 82.8809 21.9941 83.1113 21.9941ZM83.9492 17.1309V14.8105H85.3789H85.502C85.6426 14.8105 85.7578 14.8125 85.8477 14.8164C85.9375 14.8203 86.0469 14.8301 86.1758 14.8457C86.3047 14.8574 86.4082 14.8789 86.4863 14.9102C86.5684 14.9375 86.6562 14.9785 86.75 15.0332C86.8438 15.0879 86.916 15.1543 86.9668 15.2324C87.0215 15.3105 87.0664 15.4102 87.1016 15.5312C87.1367 15.6484 87.1543 15.7832 87.1543 15.9355C87.1543 16.0957 87.1328 16.2383 87.0898 16.3633C87.0469 16.4883 86.9922 16.5918 86.9258 16.6738C86.8594 16.7559 86.7695 16.8262 86.6562 16.8848C86.5469 16.9434 86.4395 16.9883 86.334 17.0195C86.2324 17.0508 86.1055 17.0762 85.9531 17.0957C85.8047 17.1113 85.6738 17.1211 85.5605 17.125C85.4512 17.1289 85.3145 17.1309 85.1504 17.1309H83.9492ZM95.2285 21.6836V19.6387L93.1895 14.7695C93.0605 14.4375 92.873 14.1895 92.627 14.0254C92.3809 13.8574 92.1152 13.7734 91.8301 13.7734C91.4902 13.7734 91.1953 13.877 90.9453 14.084C90.6953 14.291 90.5703 14.5566 90.5703 14.8809L90.5762 21.3027C90.5762 21.498 90.6504 21.6504 90.7988 21.7598C90.9512 21.8652 91.1309 21.918 91.3379 21.918C91.5449 21.918 91.7227 21.8652 91.8711 21.7598C92.0195 21.6504 92.0938 21.498 92.0938 21.3027V15.6191L94.2676 20.875C94.4707 21.4141 94.791 21.6836 95.2285 21.6836ZM95.2344 21.6836C95.668 21.6836 95.9902 21.4141 96.2012 20.875L98.3691 15.6191V21.3027C98.3691 21.498 98.4434 21.6504 98.5918 21.7598C98.7441 21.8652 98.9238 21.918 99.1309 21.918C99.3379 21.918 99.5156 21.8652 99.6641 21.7598C99.8164 21.6504 99.8926 21.498 99.8926 21.3027V14.8809C99.8926 14.5566 99.7676 14.291 99.5176 14.084C99.2676 13.877 98.9746 13.7734 98.6387 13.7734C98.3535 13.7734 98.0879 13.8574 97.8418 14.0254C97.5957 14.1895 97.4082 14.4375 97.2793 14.7695L95.2344 19.6387V21.6836ZM106.725 18.9238H103.83L105.277 15.0625L106.725 18.9238ZM107.674 21.4609C107.74 21.6523 107.842 21.7969 107.979 21.8945C108.115 21.9883 108.268 22.0352 108.436 22.0352C108.646 22.0352 108.834 21.9648 108.998 21.8242C109.162 21.6836 109.244 21.5059 109.244 21.291C109.244 21.1934 109.225 21.0938 109.186 20.9922L106.613 14.5527C106.449 14.1191 106.26 13.8281 106.045 13.6797C105.834 13.5312 105.578 13.457 105.277 13.457C104.977 13.457 104.719 13.5312 104.504 13.6797C104.293 13.8281 104.105 14.1191 103.941 14.5527L101.369 20.9922C101.33 21.0938 101.311 21.1934 101.311 21.291C101.311 21.5059 101.393 21.6836 101.557 21.8242C101.721 21.9648 101.908 22.0352 102.119 22.0352C102.287 22.0352 102.439 21.9883 102.576 21.8945C102.713 21.7969 102.814 21.6523 102.881 21.4609L103.408 20.0547H107.146L107.674 21.4609ZM113.094 22.0059C113.324 22.0059 113.521 21.9258 113.686 21.7656C113.854 21.6016 113.938 21.3887 113.938 21.127V14.8809H115.842C116.037 14.8809 116.193 14.8145 116.311 14.6816C116.428 14.5488 116.486 14.3926 116.486 14.2129C116.486 14.0371 116.426 13.8828 116.305 13.75C116.188 13.6133 116.033 13.5449 115.842 13.5449H110.346C110.15 13.5449 109.992 13.6133 109.871 13.75C109.754 13.8828 109.695 14.0391 109.695 14.2188C109.695 14.3984 109.754 14.5547 109.871 14.6875C109.988 14.8164 110.146 14.8809 110.346 14.8809H112.256V21.127C112.256 21.3887 112.338 21.6016 112.502 21.7656C112.67 21.9258 112.867 22.0059 113.094 22.0059ZM118.514 21.9941C118.744 21.9941 118.943 21.9141 119.111 21.7539C119.279 21.5938 119.363 21.3828 119.363 21.1211V14.4121C119.363 14.1504 119.279 13.9395 119.111 13.7793C118.943 13.6191 118.746 13.5391 118.52 13.5391C118.293 13.5391 118.096 13.6191 117.928 13.7793C117.764 13.9395 117.682 14.1504 117.682 14.4121V21.1211C117.682 21.3828 117.764 21.5938 117.928 21.7539C118.092 21.9141 118.287 21.9941 118.514 21.9941ZM125.135 20.8281C124.346 20.8281 123.758 20.5625 123.371 20.0312C122.988 19.4961 122.797 18.7305 122.797 17.7344C122.797 16.7461 122.99 15.9844 123.377 15.4492C123.764 14.9102 124.35 14.6406 125.135 14.6406C125.924 14.6406 126.51 14.9082 126.893 15.4434C127.279 15.9785 127.473 16.7422 127.473 17.7344C127.473 18.7305 127.279 19.4961 126.893 20.0312C126.506 20.5625 125.92 20.8281 125.135 20.8281ZM125.135 22.1523C126.451 22.1523 127.465 21.7598 128.176 20.9746C128.887 20.1895 129.242 19.1094 129.242 17.7344C129.242 16.3594 128.887 15.2793 128.176 14.4941C127.465 13.7051 126.451 13.3105 125.135 13.3105C123.826 13.3105 122.814 13.7051 122.1 14.4941C121.385 15.2793 121.027 16.3594 121.027 17.7344C121.027 19.1094 121.385 20.1895 122.1 20.9746C122.814 21.7598 123.826 22.1523 125.135 22.1523ZM131.562 22C131.766 22 131.943 21.9316 132.096 21.7949C132.248 21.6582 132.324 21.4805 132.324 21.2617V16.0703L136.15 21.3672C136.279 21.5508 136.441 21.7031 136.637 21.8242C136.832 21.9414 137.014 22 137.182 22C137.447 22 137.662 21.8945 137.826 21.6836C137.99 21.4688 138.072 21.1934 138.072 20.8574V14.2891C138.072 14.0664 137.996 13.8867 137.844 13.75C137.695 13.6133 137.521 13.5449 137.322 13.5449C137.119 13.5449 136.941 13.6152 136.789 13.7559C136.641 13.8926 136.566 14.0703 136.566 14.2891V19.4805L132.711 14.1426C132.59 13.959 132.434 13.8145 132.242 13.709C132.055 13.6035 131.873 13.5508 131.697 13.5508C131.447 13.5508 131.236 13.6426 131.064 13.8262C130.896 14.0059 130.812 14.252 130.812 14.5645V21.2617C130.812 21.4844 130.887 21.6641 131.035 21.8008C131.188 21.9336 131.363 22 131.562 22Z" fill="#363636"/>
</svg>
