<svg width="110" height="36" viewBox="0 0 110 36" fill="none" xmlns="http://www.w3.org/2000/svg">
<path d="M15.5 1.44338C15.8094 1.26474 16.1906 1.26474 16.5 1.44338L30.0885 9.28867C30.3979 9.46731 30.5885 9.79744 30.5885 10.1547V25.8453C30.5885 26.2026 30.3979 26.5327 30.0885 26.7113L16.5 34.5566C16.1906 34.7353 15.8094 34.7353 15.5 34.5566L1.91154 26.7113C1.60214 26.5327 1.41154 26.2026 1.41154 25.8453V10.1547C1.41154 9.79743 1.60214 9.46731 1.91154 9.28867L15.5 1.44338Z" fill="#009EFF" stroke="#E0E0E0" stroke-width="2"/>
<path d="M18.872 21.896C19.064 21.896 19.2133 21.944 19.32 22.04C19.4267 22.136 19.48 22.2693 19.48 22.44C19.48 22.6213 19.4267 22.76 19.32 22.856C19.224 22.952 19.0747 23 18.872 23H13.576C13.3733 23 13.2187 22.952 13.112 22.856C13.016 22.76 12.968 22.6213 12.968 22.44C12.968 22.2693 13.0213 22.136 13.128 22.04C13.2347 21.944 13.384 21.896 13.576 21.896H15.56V13.32L13.816 14.456C13.7307 14.5093 13.6453 14.536 13.56 14.536C13.4107 14.536 13.2773 14.4667 13.16 14.328C13.0533 14.1893 13 14.04 13 13.88C13 13.656 13.0853 13.496 13.256 13.4L15.688 11.816C15.8693 11.6987 16.056 11.64 16.248 11.64C16.4293 11.64 16.5787 11.6987 16.696 11.816C16.8133 11.9333 16.872 12.0987 16.872 12.312V21.896H18.872Z" fill="white"/>
<path d="M48.6523 22.1523C49.6367 22.1523 50.4707 21.9238 51.1543 21.4668C51.373 21.3145 51.4824 21.1172 51.4824 20.875C51.4824 20.7031 51.4258 20.5508 51.3125 20.418C51.2031 20.2852 51.0684 20.2188 50.9082 20.2188C50.8262 20.2188 50.7441 20.2402 50.6621 20.2832C50.0371 20.623 49.4551 20.793 48.916 20.793C48.1035 20.793 47.4805 20.5293 47.0469 20.002C46.6172 19.4707 46.4023 18.7168 46.4023 17.7402C46.4023 16.7129 46.6172 15.9453 47.0469 15.4375C47.4766 14.9297 48.0879 14.6758 48.8809 14.6758C49.0332 14.6758 49.1797 14.6855 49.3203 14.7051C49.4609 14.7246 49.5938 14.7539 49.7188 14.793C49.8438 14.8281 49.9453 14.8613 50.0234 14.8926C50.1055 14.9199 50.2012 14.959 50.3105 15.0098C50.4238 15.0605 50.4961 15.0918 50.5273 15.1035C50.6094 15.1348 50.6836 15.1504 50.75 15.1504C50.9258 15.1504 51.0781 15.0801 51.207 14.9395C51.3359 14.7988 51.4004 14.6387 51.4004 14.459C51.4004 14.2012 51.2656 13.998 50.9961 13.8496C50.2773 13.4902 49.5449 13.3105 48.7988 13.3105C48.2051 13.3105 47.6523 13.416 47.1406 13.627C46.6328 13.834 46.1934 14.127 45.8223 14.5059C45.4512 14.8848 45.1602 15.3555 44.9492 15.918C44.7383 16.4805 44.6328 17.1016 44.6328 17.7812C44.6328 18.6523 44.8066 19.4219 45.1543 20.0898C45.5059 20.7539 45.9844 21.2637 46.5898 21.6191C47.1992 21.9746 47.8867 22.1523 48.6523 22.1523ZM53.8145 21.9941C54.0449 21.9941 54.2422 21.9141 54.4062 21.7539C54.5742 21.5938 54.6582 21.3828 54.6582 21.1211V18.3086H58.291V21.1211C58.291 21.3828 58.375 21.5938 58.543 21.7539C58.7109 21.9141 58.9082 21.9941 59.1348 21.9941C59.3652 21.9941 59.5625 21.9141 59.7266 21.7539C59.8906 21.5938 59.9727 21.3828 59.9727 21.1211V14.4297C59.9727 14.168 59.8906 13.957 59.7266 13.7969C59.5625 13.6367 59.3672 13.5566 59.1406 13.5566C58.9102 13.5566 58.7109 13.6367 58.543 13.7969C58.375 13.957 58.291 14.168 58.291 14.4297V16.9375H54.6582V14.4297C54.6582 14.168 54.5742 13.957 54.4062 13.7969C54.2422 13.6367 54.0469 13.5566 53.8203 13.5566C53.5898 13.5566 53.3906 13.6367 53.2227 13.7969C53.0586 13.957 52.9766 14.168 52.9766 14.4297V21.1211C52.9766 21.3828 53.0586 21.5938 53.2227 21.7539C53.3906 21.9141 53.5879 21.9941 53.8145 21.9941ZM62.7793 22H67.1211C67.3086 22 67.457 21.9355 67.5664 21.8066C67.6797 21.6738 67.7363 21.5195 67.7363 21.3438C67.7363 21.168 67.6797 21.0137 67.5664 20.8809C67.457 20.748 67.3086 20.6816 67.1211 20.6816H63.623V18.332H66.7578C66.9492 18.332 67.1016 18.2676 67.2148 18.1387C67.332 18.0098 67.3906 17.8574 67.3906 17.6816C67.3906 17.5059 67.334 17.3535 67.2207 17.2246C67.1074 17.0957 66.9531 17.0312 66.7578 17.0312H63.623V14.875H66.9863C67.1777 14.875 67.3301 14.8086 67.4434 14.6758C67.5566 14.543 67.6133 14.3887 67.6133 14.2129C67.6133 14.0371 67.5566 13.8828 67.4434 13.75C67.3301 13.6172 67.1777 13.5508 66.9863 13.5508H62.8203C62.543 13.5508 62.3281 13.6445 62.1758 13.832C62.0273 14.0156 61.9531 14.252 61.9531 14.541V21.0566C61.9531 21.3027 62.0332 21.5215 62.1934 21.7129C62.3535 21.9043 62.5488 22 62.7793 22ZM72.9805 22.1523C73.9648 22.1523 74.7988 21.9238 75.4824 21.4668C75.7012 21.3145 75.8105 21.1172 75.8105 20.875C75.8105 20.7031 75.7539 20.5508 75.6406 20.418C75.5312 20.2852 75.3965 20.2188 75.2363 20.2188C75.1543 20.2188 75.0723 20.2402 74.9902 20.2832C74.3652 20.623 73.7832 20.793 73.2441 20.793C72.4316 20.793 71.8086 20.5293 71.375 20.002C70.9453 19.4707 70.7305 18.7168 70.7305 17.7402C70.7305 16.7129 70.9453 15.9453 71.375 15.4375C71.8047 14.9297 72.416 14.6758 73.209 14.6758C73.3613 14.6758 73.5078 14.6855 73.6484 14.7051C73.7891 14.7246 73.9219 14.7539 74.0469 14.793C74.1719 14.8281 74.2734 14.8613 74.3516 14.8926C74.4336 14.9199 74.5293 14.959 74.6387 15.0098C74.752 15.0605 74.8242 15.0918 74.8555 15.1035C74.9375 15.1348 75.0117 15.1504 75.0781 15.1504C75.2539 15.1504 75.4062 15.0801 75.5352 14.9395C75.6641 14.7988 75.7285 14.6387 75.7285 14.459C75.7285 14.2012 75.5938 13.998 75.3242 13.8496C74.6055 13.4902 73.873 13.3105 73.127 13.3105C72.5332 13.3105 71.9805 13.416 71.4688 13.627C70.9609 13.834 70.5215 14.127 70.1504 14.5059C69.7793 14.8848 69.4883 15.3555 69.2773 15.918C69.0664 16.4805 68.9609 17.1016 68.9609 17.7812C68.9609 18.6523 69.1348 19.4219 69.4824 20.0898C69.834 20.7539 70.3125 21.2637 70.918 21.6191C71.5273 21.9746 72.2148 22.1523 72.9805 22.1523ZM78.1543 22C78.3809 22 78.5781 21.9199 78.7461 21.7598C78.9141 21.5996 78.998 21.3926 78.998 21.1387V17.834L82.127 21.4551C82.2246 21.5762 82.3027 21.668 82.3613 21.7305C82.4199 21.793 82.4961 21.8535 82.5898 21.9121C82.6836 21.9668 82.7754 21.9941 82.8652 21.9941H82.877C83.0918 21.9941 83.2832 21.918 83.4512 21.7656C83.623 21.6133 83.709 21.4316 83.709 21.2207C83.709 21.0137 83.6328 20.8066 83.4805 20.5996L80.7324 17.5352L83.2051 14.8574C83.3574 14.6738 83.4336 14.4844 83.4336 14.2891C83.4336 14.0859 83.3535 13.9141 83.1934 13.7734C83.0332 13.6289 82.8516 13.5566 82.6484 13.5566C82.4375 13.5566 82.209 13.709 81.9629 14.0137L78.998 17.3828V14.4121C78.998 14.1543 78.9141 13.9453 78.7461 13.7852C78.5781 13.625 78.3809 13.5449 78.1543 13.5449C77.9277 13.5449 77.7305 13.625 77.5625 13.7852C77.3984 13.9453 77.3164 14.1543 77.3164 14.4121V21.1387C77.3164 21.3965 77.3984 21.6055 77.5625 21.7656C77.7266 21.9219 77.9238 22 78.1543 22ZM88.9941 20.8281C88.2051 20.8281 87.6172 20.5625 87.2305 20.0312C86.8477 19.4961 86.6562 18.7305 86.6562 17.7344C86.6562 16.7461 86.8496 15.9844 87.2363 15.4492C87.623 14.9102 88.209 14.6406 88.9941 14.6406C89.7832 14.6406 90.3691 14.9082 90.752 15.4434C91.1387 15.9785 91.332 16.7422 91.332 17.7344C91.332 18.7305 91.1387 19.4961 90.752 20.0312C90.3652 20.5625 89.7793 20.8281 88.9941 20.8281ZM88.9941 22.1523C90.3105 22.1523 91.3242 21.7598 92.0352 20.9746C92.7461 20.1895 93.1016 19.1094 93.1016 17.7344C93.1016 16.3594 92.7461 15.2793 92.0352 14.4941C91.3242 13.7051 90.3105 13.3105 88.9941 13.3105C87.6855 13.3105 86.6738 13.7051 85.959 14.4941C85.2441 15.2793 84.8867 16.3594 84.8867 17.7344C84.8867 19.1094 85.2441 20.1895 85.959 20.9746C86.6738 21.7598 87.6855 22.1523 88.9941 22.1523ZM98.1465 22.1523C98.6387 22.1523 99.0938 22.0879 99.5117 21.959C99.9336 21.8301 100.305 21.6426 100.625 21.3965C100.945 21.1465 101.195 20.8242 101.375 20.4297C101.559 20.0352 101.65 19.5859 101.65 19.082V14.3887C101.65 14.127 101.566 13.916 101.398 13.7559C101.234 13.5957 101.039 13.5156 100.812 13.5156C100.582 13.5156 100.383 13.5957 100.215 13.7559C100.051 13.916 99.9688 14.127 99.9688 14.3887V19.041C99.9688 19.3457 99.916 19.6172 99.8105 19.8555C99.709 20.0898 99.5703 20.2754 99.3945 20.4121C99.2188 20.5488 99.0254 20.6523 98.8145 20.7227C98.6035 20.793 98.3809 20.8281 98.1465 20.8281C97.9121 20.8281 97.6895 20.793 97.4785 20.7227C97.2715 20.6523 97.082 20.5488 96.9102 20.4121C96.7383 20.2754 96.5996 20.0898 96.4941 19.8555C96.3926 19.6172 96.3418 19.3457 96.3418 19.041V14.3887C96.3418 14.127 96.2578 13.916 96.0898 13.7559C95.9258 13.5957 95.7285 13.5156 95.498 13.5156C95.2676 13.5156 95.0703 13.5957 94.9062 13.7559C94.7422 13.916 94.6602 14.127 94.6602 14.3887V19.082C94.6602 19.5859 94.75 20.0371 94.9297 20.4355C95.1094 20.8301 95.3594 21.1523 95.6797 21.4023C96 21.6484 96.3672 21.8359 96.7812 21.9648C97.1992 22.0898 97.6543 22.1523 98.1465 22.1523ZM106.121 22.0059C106.352 22.0059 106.549 21.9258 106.713 21.7656C106.881 21.6016 106.965 21.3887 106.965 21.127V14.8809H108.869C109.064 14.8809 109.221 14.8145 109.338 14.6816C109.455 14.5488 109.514 14.3926 109.514 14.2129C109.514 14.0371 109.453 13.8828 109.332 13.75C109.215 13.6133 109.061 13.5449 108.869 13.5449H103.373C103.178 13.5449 103.02 13.6133 102.898 13.75C102.781 13.8828 102.723 14.0391 102.723 14.2188C102.723 14.3984 102.781 14.5547 102.898 14.6875C103.016 14.8164 103.174 14.8809 103.373 14.8809H105.283V21.127C105.283 21.3887 105.365 21.6016 105.529 21.7656C105.697 21.9258 105.895 22.0059 106.121 22.0059Z" fill="#363636"/>
</svg>
