<svg width="108" height="40" viewBox="0 0 108 40" fill="none" xmlns="http://www.w3.org/2000/svg">
<path fill-rule="evenodd" clip-rule="evenodd" d="M10.9877 11.0317C10.9406 11.059 10.8957 11.0889 10.8527 11.1208L1.0458 5.45222L0.541456 5.16077C0.585178 5.12762 0.631622 5.09693 0.680151 5.06886L9.13313 0.182406C9.55411 -0.0609989 10.0725 -0.0605448 10.4931 0.182225L18.9465 5.06922C19.3128 5.2813 19.5566 5.64858 19.6134 6.06119C19.5543 6.08481 19.4966 6.11296 19.4407 6.14529L10.9877 11.0317ZM29.4131 23.0561C29.3644 23.0181 29.3125 22.9826 29.2578 22.9513L20.8046 18.0643C20.7557 18.0362 20.7062 18.0118 20.6551 17.9902C20.3301 17.8519 19.9642 17.846 19.6352 17.9732C19.6256 17.9769 19.6162 17.9809 19.6065 17.9846C19.5515 18.0072 19.4971 18.0342 19.4445 18.0645L10.9915 22.9509C10.939 22.9813 10.8885 23.0151 10.8415 23.0514L10.8311 23.0574C10.5529 22.8402 10.3699 22.5229 10.3212 22.1731L10.3316 22.1671C10.3866 22.1445 10.441 22.1176 10.4935 22.0872L18.9465 17.2008C18.999 17.1704 19.0495 17.1366 19.0966 17.1003C19.105 17.0935 19.1138 17.0871 19.1215 17.08C19.396 16.8585 19.5736 16.5377 19.616 16.1869C19.6231 16.1324 19.6266 16.0773 19.6266 16.0216L19.6263 6.24825C19.6266 6.18522 19.6219 6.12246 19.6134 6.06125L19.6351 6.05253C19.9642 5.92656 20.3306 5.93346 20.6555 6.07251C20.6557 6.07305 20.6563 6.07278 20.6565 6.07324C20.7058 6.09394 20.7536 6.11801 20.8008 6.14517L29.254 11.0321C29.675 11.2755 29.9339 11.7244 29.9339 12.2111L29.9342 21.9845C29.9342 22.039 29.931 22.0925 29.9243 22.1455L29.9246 22.146C29.8825 22.4973 29.7058 22.8182 29.4322 23.0404C29.4293 23.0431 29.4264 23.0455 29.4233 23.048C29.4214 23.0496 29.4194 23.0511 29.4174 23.0527L29.4172 23.0529L29.4172 23.0529L29.4131 23.0561ZM29.4131 23.0561C29.7417 23.3107 29.9374 23.7045 29.9377 24.1266L29.938 33.8666C29.9377 34.3511 29.6789 34.7992 29.2578 35.0417L20.8048 39.9233C20.7562 39.9512 20.7065 39.976 20.6555 39.9976L20.6553 39.4042L20.6555 28.1059C20.7046 28.0847 20.7534 28.0604 20.801 28.033L29.254 23.1634C29.31 23.1312 29.3631 23.0953 29.4131 23.0561ZM19.6353 40C19.5704 39.9748 19.5066 39.9449 19.4448 39.9093L10.9915 35.0397C10.5706 34.7973 10.3116 34.3498 10.3117 33.8649L10.3114 24.1263C10.3117 23.7064 10.5064 23.3136 10.8325 23.0585C10.8812 23.0965 10.9331 23.1317 10.9877 23.163L11.3516 23.3724L19.441 28.0326C19.5039 28.0688 19.5687 28.0994 19.6354 28.1242V38.8323L19.6353 40ZM9.13348 22.0874C9.49823 22.2978 9.93645 22.3261 10.3209 22.1713C10.3123 22.1101 10.3076 22.0473 10.3079 21.9843L10.3081 21.5637L10.3076 12.2109C10.3075 12.1382 10.3136 12.0659 10.3254 11.9956L1.03046 6.62242L0.0167813 6.03662C0.00571472 6.10582 9.07098e-05 6.17657 0 6.24805L0.000362839 16.0214C0.000362839 16.508 0.259249 16.9571 0.680233 17.2005L9.13348 22.0874Z" fill="#009EFF"/>
<path fill-rule="evenodd" clip-rule="evenodd" d="M47.7835 29.8595C42.1236 29.8595 39.2936 26.6838 39.2936 20.3315C39.2936 17.1733 40.0328 14.7912 41.5116 13.185C42.9899 11.5787 45.0804 10.7758 47.7835 10.7758C49.0717 10.7758 50.2504 11.0346 51.3209 11.5516C52.3911 12.0688 53.253 12.7724 53.9061 13.6616C54.0326 13.8432 54.0965 14.0336 54.0965 14.2334C54.0965 14.4877 54.0149 14.6961 53.8516 14.8594C53.6887 15.0227 53.4799 15.1043 53.2259 15.1043C52.9355 15.1043 52.6993 14.9867 52.5183 14.7506C52.0287 14.0792 51.3622 13.5298 50.5183 13.1033C49.6749 12.6771 48.763 12.4636 47.7835 12.4636C45.661 12.4636 44.033 13.1173 42.8994 14.4238C41.7653 15.7306 41.1986 17.7001 41.1986 20.3315C41.1986 23.0718 41.7516 25.0642 42.8583 26.3068C43.9646 27.5502 45.6068 28.1716 47.7835 28.1716C48.7268 28.1716 49.6244 27.981 50.4775 27.6001C51.3298 27.2191 52.0105 26.6653 52.5183 25.9397C52.6816 25.7034 52.9172 25.5857 53.2259 25.5857C53.4799 25.5857 53.6887 25.6717 53.8516 25.8441C54.0149 26.0167 54.0965 26.2211 54.0965 26.4566C54.0965 26.6382 54.042 26.8103 53.9335 26.9739C53.3346 27.8451 52.4727 28.5441 51.348 29.0702C50.2233 29.5963 49.0352 29.8595 47.7835 29.8595Z" fill="#161616"/>
<path fill-rule="evenodd" clip-rule="evenodd" d="M57.0388 17.1061C57.2114 16.9429 57.4149 16.861 57.6511 16.861C57.8868 16.861 58.0908 16.9477 58.2631 17.1198C58.4354 17.2925 58.5218 17.4966 58.5218 17.7324V24.8378C58.5218 25.8543 58.7573 26.6573 59.2294 27.247C59.7008 27.837 60.5713 28.1317 61.8415 28.1317C63.1112 28.1317 63.9818 27.837 64.4536 27.247C64.9255 26.6573 65.1615 25.8543 65.1615 24.8378V17.7324C65.1615 17.4966 65.2474 17.2925 65.4197 17.1198C65.5923 16.9477 65.8052 16.861 66.0594 16.861C66.2948 16.861 66.495 16.9477 66.658 17.1198C66.8215 17.2925 66.9028 17.4966 66.9028 17.7324V24.8378C66.9028 26.3444 66.5396 27.5465 65.8143 28.4448C65.0887 29.3434 63.7643 29.7924 61.8415 29.7924C59.9185 29.7924 58.5941 29.3434 57.8688 28.4448C57.1429 27.5465 56.7803 26.3444 56.7803 24.8378V17.7324C56.7803 17.4786 56.8662 17.2699 57.0388 17.1061Z" fill="#161616"/>
<path fill-rule="evenodd" clip-rule="evenodd" d="M71.1932 20.6324V24.3892C71.1932 25.6415 71.5201 26.5855 72.1729 27.2206C72.826 27.856 73.6968 28.1734 74.7856 28.1734C77.3432 28.1734 78.622 26.5125 78.622 23.1915C78.622 19.8885 77.3432 18.2364 74.7856 18.2364C74.3137 18.2364 73.8646 18.3186 73.4381 18.4818C73.0118 18.6454 72.6669 18.8449 72.4043 19.0807C72.141 19.3168 71.9144 19.5528 71.7241 19.7884C71.5335 20.0247 71.4017 20.2242 71.3293 20.3875L71.1932 20.6324ZM74.8943 16.6576C78.5404 16.6576 80.3638 18.8358 80.3638 23.1915C80.3638 25.3875 79.8825 27.0297 78.9215 28.1187C77.9595 29.2077 76.5813 29.7523 74.7855 29.7523C73.1707 29.7523 71.8779 29.2941 70.9078 28.3775C69.9372 27.4612 69.4518 26.1316 69.4518 24.3892V10.8863C69.4518 10.6325 69.538 10.4236 69.7106 10.2603C69.8827 10.0968 70.0867 10.0151 70.3224 10.0151C70.5581 10.0151 70.7626 10.0968 70.9347 10.2603C71.1073 10.4236 71.1932 10.6325 71.1932 10.8863V18.4273C71.5378 17.9372 72.0371 17.5201 72.6897 17.1751C73.3433 16.8302 74.0777 16.6576 74.8943 16.6576Z" fill="#161616"/>
<path fill-rule="evenodd" clip-rule="evenodd" d="M84.6252 20.6324V24.3892C84.6252 25.6415 84.9516 26.5855 85.6047 27.2206C86.2578 27.856 87.1286 28.1734 88.2168 28.1734C90.7749 28.1734 92.0537 26.5125 92.0537 23.1915C92.0537 19.8885 90.7749 18.2364 88.2168 18.2364C87.7449 18.2364 87.2958 18.3186 86.8701 18.4818C86.4438 18.6454 86.0986 18.8449 85.8358 19.0807C85.5728 19.3168 85.3464 19.5528 85.1556 19.7884C84.9653 20.0247 84.8332 20.2242 84.7613 20.3875L84.6252 20.6324ZM88.3258 16.6576C91.9721 16.6576 93.7951 18.8358 93.7951 23.1915C93.7951 25.3875 93.3143 27.0297 92.3528 28.1187C91.3913 29.2077 90.0129 29.7523 88.2168 29.7523C86.6019 29.7523 85.3097 29.2941 84.3393 28.3775C83.3687 27.4612 82.8836 26.1316 82.8836 24.3892V10.8863C82.8836 10.6325 82.9693 10.4236 83.1419 10.2603C83.3142 10.0968 83.5184 10.0151 83.7541 10.0151C83.9898 10.0151 84.1938 10.0968 84.3664 10.2603C84.5385 10.4236 84.6252 10.6325 84.6252 10.8863V18.4273C84.9693 17.9372 85.4683 17.5201 86.1217 17.1751C86.7745 16.8302 87.5097 16.6576 88.3258 16.6576Z" fill="#161616"/>
<path fill-rule="evenodd" clip-rule="evenodd" d="M98.474 17.5972V28.65C98.474 28.9044 98.3924 29.1125 98.2289 29.2761C98.0659 29.4393 97.8571 29.5212 97.6027 29.5212C97.349 29.5212 97.1404 29.4393 96.9774 29.2761C96.814 29.1125 96.7324 28.9044 96.7324 28.65V17.5972C96.7324 17.3436 96.814 17.1347 96.9774 16.9709C97.1404 16.8079 97.349 16.7257 97.6027 16.7257C97.8571 16.7257 98.0659 16.8079 98.2289 16.9709C98.3924 17.1347 98.474 17.3436 98.474 17.5972ZM97.6027 14.1669C96.9133 14.1669 96.5689 13.8223 96.5689 13.1327C96.5689 12.4068 96.9133 12.0435 97.6027 12.0435C98.2922 12.0435 98.6372 12.4068 98.6372 13.1327C98.6372 13.8223 98.2922 14.1669 97.6027 14.1669Z" fill="#161616"/>
<path fill-rule="evenodd" clip-rule="evenodd" d="M103.008 17.0407V14.1822C103.008 13.9464 103.094 13.7423 103.267 13.5696C103.439 13.3972 103.643 13.3113 103.879 13.3113C104.115 13.3113 104.319 13.3972 104.491 13.5696C104.663 13.7423 104.75 13.9464 104.75 14.1822V17.0407H106.518C106.754 17.0407 106.949 17.1183 107.103 17.2719C107.257 17.4264 107.335 17.6218 107.335 17.8574C107.335 18.0934 107.257 18.2889 107.103 18.4426C106.949 18.597 106.754 18.6743 106.518 18.6743H104.75V26.1877C104.75 26.7503 104.894 27.1907 105.185 27.5082C105.475 27.8259 105.856 27.9843 106.328 27.9843C106.563 27.9843 106.763 28.0619 106.926 28.2161C107.09 28.3705 107.172 28.5657 107.172 28.8015C107.172 29.0373 107.09 29.2325 106.926 29.3867C106.763 29.5406 106.563 29.6179 106.328 29.6179C105.275 29.6179 104.459 29.3007 103.879 28.6653C103.298 28.03 103.008 27.2044 103.008 26.1877V18.6743H101.947C101.711 18.6743 101.516 18.597 101.362 18.4426C101.207 18.2889 101.131 18.0934 101.131 17.8574C101.131 17.6218 101.207 17.4264 101.362 17.2719C101.516 17.1183 101.711 17.0407 101.947 17.0407H103.008Z" fill="#161616"/>
</svg>
