<svg width="32" height="19" viewBox="0 0 32 19" fill="none" xmlns="http://www.w3.org/2000/svg">
<path d="M29.4108 0H2.50594C1.36293 0 0.43634 0.937985 0.43634 2.09505V16.7604C0.43634 17.9174 1.36293 18.8554 2.50594 18.8554H29.4108C30.5538 18.8554 31.4804 17.9174 31.4804 16.7604V2.09505C31.4804 0.937985 30.5538 0 29.4108 0Z" fill="#000066"/>
<path fill-rule="evenodd" clip-rule="evenodd" d="M26.4067 9.4226C26.4067 12.8968 23.6358 15.7129 20.2168 15.7129C16.7986 15.7129 14.0272 12.8968 14.0272 9.4226C14.0272 5.94828 16.7986 3.13214 20.2168 3.13214C23.6358 3.13214 26.4067 5.94828 26.4067 9.4226Z" fill="#CC0000"/>
<path fill-rule="evenodd" clip-rule="evenodd" d="M15.4352 13.4172C15.2643 13.2066 15.1069 12.984 14.9638 12.751H17.1575C17.2892 12.5375 17.4081 12.315 17.5142 12.0848H14.6073C14.5082 11.8693 14.4201 11.6471 14.3452 11.4189H17.7758C17.9824 10.7916 18.094 10.1206 18.094 9.4226C18.094 8.96552 18.0461 8.51977 17.9551 8.09053H14.1664C14.2143 7.86358 14.2748 7.6415 14.346 7.42439H17.7754C17.7002 7.19625 17.6126 6.97407 17.5136 6.75855H14.6079C14.714 6.52842 14.8332 6.30635 14.9645 6.09232H17.1568C17.0138 5.8599 16.856 5.63773 16.6854 5.42678H15.436C15.6282 5.18969 15.8371 4.96712 16.0607 4.76104C14.9621 3.74877 13.504 3.13214 11.9045 3.13214C8.48575 3.13214 5.71442 5.94828 5.71442 9.4226C5.71442 12.8968 8.48575 15.7129 11.9045 15.7129C13.504 15.7129 14.9623 15.0962 16.0607 14.0843C16.2847 13.8779 16.4938 13.6548 16.6861 13.4172H15.4352Z" fill="#0066CC"/>
<path fill-rule="evenodd" clip-rule="evenodd" d="M15.9724 11.1225C15.7078 11.1937 15.452 11.2285 15.1816 11.2279C14.3188 11.2271 13.8695 10.8277 13.8695 10.0641C13.8695 9.17189 14.4415 8.5157 15.218 8.5157C15.8531 8.5157 16.2585 8.88361 16.2585 9.46008C16.2585 9.65134 16.2311 9.83773 16.1639 10.1012H14.6297C14.5751 10.4741 14.843 10.6379 15.2992 10.6379C15.5724 10.6379 15.8195 10.588 16.0932 10.4761L15.9724 11.1225ZM15.5598 9.57499C15.5598 9.51873 15.6451 9.11831 15.2011 9.10966C14.9559 9.10966 14.7801 9.27528 14.709 9.57499H15.5598Z" fill="#000066"/>
<path fill-rule="evenodd" clip-rule="evenodd" d="M16.4924 9.4001C16.4924 9.72964 16.675 9.95738 17.0901 10.1269C17.4073 10.2589 17.4572 10.2972 17.4572 10.4152C17.4572 10.5787 17.3171 10.6536 17.0058 10.6516C16.7721 10.65 16.5588 10.621 16.307 10.5502L16.1956 11.1513C16.4195 11.2041 16.7332 11.2214 17.0113 11.2279C17.8398 11.2279 18.2224 10.9523 18.2224 10.3564C18.2224 9.99814 18.0628 9.78749 17.6693 9.63043C17.3404 9.49682 17.3019 9.46809 17.3019 9.34711C17.3019 9.20516 17.4322 9.13338 17.6863 9.13338C17.8403 9.13338 18.0512 9.1477 18.2513 9.17235L18.3635 8.56795C18.1596 8.53922 17.8504 8.51616 17.6713 8.51616C16.7936 8.51616 16.4898 8.91767 16.4924 9.4001Z" fill="#000066"/>
<path fill-rule="evenodd" clip-rule="evenodd" d="M13.4493 11.1848H12.8057L12.8211 10.9108C12.6248 11.127 12.3633 11.2277 12.0086 11.2277C11.5887 11.2277 11.3011 10.9359 11.3011 10.5163C11.3011 9.87849 11.8011 9.51058 12.6608 9.51058C12.7492 9.51058 12.8616 9.51734 12.977 9.53056C13.0009 9.44517 13.0073 9.40839 13.0073 9.36206C13.0073 9.1875 12.872 9.12318 12.5103 9.12318C12.1536 9.12458 11.9129 9.17836 11.6896 9.23929L11.7995 8.65418C12.1858 8.55437 12.4386 8.5157 12.7247 8.5157C13.3905 8.5157 13.7421 8.78112 13.7421 9.27955C13.7476 9.41266 13.7021 9.67967 13.6791 9.79658C13.6531 9.96646 13.4686 10.9522 13.4493 11.1848ZM12.8844 10.0211C12.8029 10.013 12.7674 10.0105 12.7115 10.0105C12.2725 10.0105 12.05 10.1433 12.05 10.4055C12.05 10.5701 12.1586 10.673 12.3279 10.673C12.6433 10.673 12.8711 10.4049 12.8844 10.0211Z" fill="#000066"/>
<path fill-rule="evenodd" clip-rule="evenodd" d="M19.5783 11.1435C19.3672 11.2022 19.2025 11.2279 19.0246 11.2279C18.6303 11.2279 18.415 11.0231 18.415 10.6585C18.4026 10.5583 18.4989 10.0954 18.5208 9.96649C18.5426 9.83716 18.8841 7.95178 18.8841 7.95178H19.6501L19.5343 8.57567H19.9271L19.8204 9.21218H19.4258C19.4258 9.21218 19.2093 10.3173 19.2093 10.4018C19.2093 10.5357 19.2891 10.594 19.4725 10.594C19.5602 10.594 19.628 10.5856 19.6803 10.5697L19.5783 11.1435Z" fill="#000066"/>
<path fill-rule="evenodd" clip-rule="evenodd" d="M23.0015 8.51566C22.44 8.51566 22.0014 8.75076 21.7465 9.14282L21.9677 8.56108C21.5602 8.40909 21.2974 8.6261 21.0599 8.93446C21.0599 8.93446 21.0201 8.98566 20.9804 9.03248V8.5753H20.2612C20.1637 9.3822 19.9914 10.2005 19.8567 11.0092L19.8242 11.1851H20.5979C20.6714 10.7747 20.7316 10.4417 20.7917 10.1761C20.9561 9.44741 21.2327 9.22473 21.648 9.32335C21.5521 9.5326 21.4996 9.77516 21.4996 10.0435C21.4996 10.6949 21.8475 11.2278 22.7118 11.2278C23.5839 11.2278 24.2154 10.7544 24.2154 9.67495C24.2154 9.02393 23.7945 8.51566 23.0015 8.51566ZM22.7763 10.5947C22.503 10.599 22.3373 10.3659 22.3373 10.0172C22.3373 9.60407 22.5791 9.13715 22.9675 9.13715C23.281 9.13715 23.3883 9.38975 23.3883 9.65885C23.3883 10.2466 23.1513 10.5947 22.7763 10.5947Z" fill="#000066"/>
<path fill-rule="evenodd" clip-rule="evenodd" d="M10.9401 11.1851H10.1695L10.6274 8.73329L9.57308 11.1851H8.87066L8.74231 8.7477L8.2829 11.1851H7.5838L8.1792 7.99588H9.38339L9.48366 9.7738L10.2465 7.99588H11.5474L10.9401 11.1851Z" fill="#000066"/>
<path fill-rule="evenodd" clip-rule="evenodd" d="M16.1657 10.9259C15.9014 10.9972 15.6455 11.032 15.3751 11.0314C14.5124 11.0306 14.063 10.6312 14.063 9.8676C14.063 8.97542 14.635 8.31922 15.4113 8.31922C16.0466 8.31922 16.4521 8.68713 16.4521 9.2635C16.4521 9.45476 16.4246 9.64075 16.3575 9.90468H14.8233C14.7686 10.2773 15.0364 10.4413 15.4925 10.4413C15.7658 10.4413 16.013 10.3914 16.2866 10.2794L16.1657 10.9259ZM15.7532 9.37852C15.7532 9.32215 15.8385 8.92183 15.3946 8.91309C15.1495 8.91309 14.9737 9.0787 14.9023 9.37852H15.7532Z" fill="white"/>
<path fill-rule="evenodd" clip-rule="evenodd" d="M16.6858 9.20343C16.6858 9.53307 16.8683 9.76062 17.2833 9.93031C17.6007 10.0624 17.6505 10.1006 17.6505 10.2183C17.6505 10.3821 17.5103 10.4571 17.1993 10.4552C16.9653 10.4534 16.7519 10.4245 16.5004 10.3536L16.3888 10.9545C16.6127 11.0075 16.9267 11.0248 17.2045 11.0315C18.033 11.0315 18.4157 10.7557 18.4157 10.1596C18.4157 9.80157 18.2561 9.59073 17.8626 9.43386C17.5337 9.30036 17.4951 9.27123 17.4951 9.15065C17.4951 9.00869 17.6256 8.93662 17.8795 8.93662C18.0336 8.93662 18.2443 8.95124 18.4446 8.97589L18.5568 8.37149C18.3529 8.34236 18.0437 8.3196 17.8648 8.3196C16.9868 8.3196 16.6831 8.72091 16.6858 9.20343Z" fill="white"/>
<path fill-rule="evenodd" clip-rule="evenodd" d="M13.6427 10.9882H12.9989L13.0144 10.7143C12.8181 10.9302 12.5568 11.0308 12.202 11.0308C11.7822 11.0308 11.4943 10.7391 11.4943 10.3195C11.4943 9.68191 11.9944 9.314 12.8541 9.314C12.9424 9.314 13.0548 9.32086 13.1704 9.33358C13.1943 9.24839 13.2006 9.21191 13.2006 9.16548C13.2006 8.99053 13.0654 8.92651 12.7037 8.92651C12.347 8.928 12.1063 8.98178 11.883 9.04281L11.9927 8.4576C12.379 8.35779 12.6317 8.31922 12.9181 8.31922C13.5838 8.31922 13.9353 8.58434 13.9353 9.08298C13.9411 9.21618 13.8953 9.4827 13.8726 9.6C13.8463 9.76989 13.6619 10.7556 13.6427 10.9882ZM13.0776 9.82466C12.9963 9.81611 12.9606 9.81392 12.9047 9.81392C12.4659 9.81392 12.2433 9.94654 12.2433 10.2085C12.2433 10.3734 12.352 10.4765 12.5211 10.4765C12.8367 10.4765 13.0644 10.2081 13.0776 9.82466Z" fill="white"/>
<path fill-rule="evenodd" clip-rule="evenodd" d="M19.7716 10.9469C19.5603 11.0058 19.3958 11.0314 19.2177 11.0314C18.8235 11.0314 18.6084 10.8265 18.6084 10.4619C18.5958 10.3617 18.6922 9.89886 18.714 9.76993C18.7359 9.6406 19.0775 7.75522 19.0775 7.75522H19.8434L19.7276 8.37891H20.1205L20.0137 9.01562H19.6191C19.6191 9.01562 19.4025 10.1207 19.4025 10.2048C19.4025 10.3392 19.4824 10.3971 19.6658 10.3971C19.7535 10.3971 19.8212 10.3891 19.8738 10.373L19.7716 10.9469Z" fill="white"/>
<path fill-rule="evenodd" clip-rule="evenodd" d="M23.5819 9.46192C23.5819 10.0501 23.3446 10.3982 22.9696 10.3982C22.6963 10.4022 22.5307 10.1695 22.5307 9.82078C22.5307 9.40764 22.7725 8.94062 23.1608 8.94062C23.4744 8.94062 23.5819 9.19322 23.5819 9.46192ZM24.4088 9.47842C24.4088 8.8275 23.9878 8.31922 23.195 8.31922C22.2829 8.31922 21.693 8.93694 21.693 9.84703C21.693 10.4983 22.0409 11.0314 22.9053 11.0314C23.7774 11.0314 24.4088 10.558 24.4088 9.47842Z" fill="white"/>
<path fill-rule="evenodd" clip-rule="evenodd" d="M20.4545 8.3786C20.3572 9.1857 20.1848 10.0039 20.0502 10.8125L20.0177 10.9887H20.7913C21.0702 9.42686 21.1638 8.98201 21.7481 9.13858L22.0292 8.39968C21.6215 8.24768 21.3592 8.46479 21.1218 8.77335C21.1432 8.63448 21.1835 8.50038 21.1738 8.3786H20.4545Z" fill="white"/>
<path fill-rule="evenodd" clip-rule="evenodd" d="M11.1342 10.9886H10.3637L10.8216 8.53683L9.76717 10.9886H9.06475L8.9363 8.55114L8.47689 10.9886H7.77789L8.37319 7.79932H9.57748L9.64107 9.77376L10.4888 7.79932H11.7415L11.1342 10.9886Z" fill="white"/>
</svg>
