<svg width="32" height="19" viewBox="0 0 32 19" fill="none" xmlns="http://www.w3.org/2000/svg">
<path d="M29.1926 0H2.2878C1.14479 0 0.218201 0.937985 0.218201 2.09505V16.7604C0.218201 17.9174 1.14479 18.8554 2.2878 18.8554H29.1926C30.3356 18.8554 31.2622 17.9174 31.2622 16.7604V2.09505C31.2622 0.937985 30.3356 0 29.1926 0Z" fill="#000066"/>
<path fill-rule="evenodd" clip-rule="evenodd" d="M17.6426 9.58027C17.6426 12.9674 14.9304 15.7129 11.5845 15.7129C8.23846 15.7129 5.52606 12.9674 5.52606 9.58027C5.52606 6.19322 8.23846 3.44747 11.5845 3.44747C14.9304 3.44747 17.6426 6.19322 17.6426 9.58027Z" fill="#CC0000"/>
<path fill-rule="evenodd" clip-rule="evenodd" d="M19.718 3.44747C18.1523 3.44747 16.7261 4.04865 15.6508 5.03487C15.432 5.23588 15.2278 5.45297 15.0393 5.68412H16.2633C16.4305 5.89016 16.5845 6.10677 16.7252 6.33365H14.5773C14.4489 6.54212 14.332 6.75873 14.2283 6.98319H17.074C17.1713 7.1934 17.2569 7.40991 17.3306 7.63244H13.9717C13.9018 7.84391 13.8428 8.06061 13.7957 8.28158H17.5064C17.5952 8.70026 17.6425 9.13465 17.6425 9.58027C17.6425 10.2611 17.5329 10.9165 17.3306 11.5285H13.9717C14.0454 11.7508 14.131 11.9676 14.2281 12.1781H17.074C16.9701 12.402 16.8538 12.6188 16.7246 12.8276H14.5773C14.7174 13.0538 14.8717 13.2707 15.0393 13.4764H16.2629C16.0748 13.7078 15.8704 13.9249 15.651 14.1259C16.7262 15.1121 18.1523 15.7129 19.718 15.7129C23.0638 15.7129 25.7761 12.9674 25.7761 9.58027C25.7761 6.19351 23.0638 3.44747 19.718 3.44747Z" fill="#FF9900"/>
<path fill-rule="evenodd" clip-rule="evenodd" d="M10.17 10.2517C10.101 10.2438 10.0706 10.2412 10.0232 10.2412C9.65035 10.2412 9.46184 10.3707 9.46184 10.6265C9.46184 10.784 9.55385 10.8841 9.69746 10.8841C9.96543 10.8841 10.1585 10.6259 10.17 10.2517ZM10.6484 11.379H10.1033L10.1158 11.1168C9.94963 11.3238 9.7278 11.4227 9.42651 11.4227C9.07017 11.4227 8.82574 11.141 8.82574 10.7317C8.82574 10.1156 9.25073 9.75637 9.98037 9.75637C10.0551 9.75637 10.1507 9.76335 10.2485 9.77585C10.2688 9.69231 10.2742 9.65684 10.2742 9.61177C10.2742 9.4443 10.1597 9.3815 9.85246 9.3815C9.53068 9.3782 9.26529 9.45932 9.15624 9.49557C9.16313 9.45351 9.24748 8.92657 9.24748 8.92657C9.5751 8.82907 9.79128 8.79263 10.0346 8.79263C10.5994 8.79263 10.8986 9.04927 10.8979 9.53443C10.8991 9.66459 10.8777 9.8246 10.8447 10.0357C10.7876 10.402 10.6651 11.1877 10.6484 11.379Z" fill="#000066"/>
<path fill-rule="evenodd" clip-rule="evenodd" d="M8.55022 11.379H7.89239L8.26941 8.98783L7.42796 11.379H6.9798L6.92437 9.0012L6.52839 11.379H5.91278L6.427 8.26822H7.37281L7.42997 10.0094L8.00699 8.26822H9.05888L8.55022 11.379Z" fill="#000066"/>
<path fill-rule="evenodd" clip-rule="evenodd" d="M20.5307 10.2517C20.4617 10.2438 20.4316 10.2412 20.3843 10.2412C20.0112 10.2412 19.8229 10.3707 19.8229 10.6265C19.8229 10.784 19.9145 10.8841 20.0585 10.8841C20.3263 10.8841 20.5195 10.6259 20.5307 10.2517ZM21.0094 11.379H20.4645L20.4768 11.1168C20.3106 11.3238 20.0889 11.4227 19.7878 11.4227C19.431 11.4227 19.1868 11.141 19.1868 10.7317C19.1868 10.1156 19.612 9.75637 20.3414 9.75637C20.4161 9.75637 20.5115 9.76335 20.6094 9.77585C20.6298 9.69231 20.6351 9.65684 20.6351 9.61177C20.6351 9.4443 20.5206 9.3815 20.2133 9.3815C19.8916 9.3782 19.6263 9.45932 19.5168 9.49557C19.5241 9.45351 19.6087 8.92657 19.6087 8.92657C19.9361 8.82907 20.1525 8.79263 20.3953 8.79263C20.9606 8.79263 21.2594 9.04927 21.2588 9.53443C21.26 9.66459 21.2388 9.8246 21.2056 10.0357C21.1487 10.402 21.0259 11.1877 21.0094 11.379Z" fill="#000066"/>
<path fill-rule="evenodd" clip-rule="evenodd" d="M13.571 11.3404C13.3909 11.3978 13.2507 11.4226 13.0985 11.4226C12.7623 11.4226 12.5788 11.227 12.5788 10.8668C12.5741 10.755 12.6271 10.4608 12.6689 10.1925C12.707 9.95616 12.9542 8.46616 12.9542 8.46616H13.6078L13.5315 8.84908H13.9264L13.8373 9.45714H13.441C13.3651 9.93813 13.2568 10.5375 13.2556 10.6169C13.2556 10.7474 13.3243 10.8044 13.4808 10.8044C13.5558 10.8044 13.6138 10.7966 13.6581 10.7805L13.571 11.3404Z" fill="#000066"/>
<path fill-rule="evenodd" clip-rule="evenodd" d="M15.5758 11.32C15.3512 11.3895 15.1347 11.4234 14.905 11.4227C14.1731 11.4217 13.7916 11.035 13.7916 10.2941C13.7916 9.42938 14.2769 8.79263 14.9359 8.79263C15.4748 8.79263 15.8191 9.14909 15.8191 9.70791C15.8191 9.8937 15.7956 10.0747 15.7384 10.3302H14.4366C14.3926 10.6972 14.6245 10.8501 15.0051 10.8501C15.2388 10.8501 15.45 10.8012 15.6846 10.691L15.5758 11.32ZM15.2083 9.82034C15.2121 9.76752 15.2775 9.36871 14.9039 9.36871C14.6959 9.36871 14.5469 9.52939 14.4864 9.82034H15.2083Z" fill="#000066"/>
<path fill-rule="evenodd" clip-rule="evenodd" d="M11.0429 9.64899C11.0429 9.96872 11.1961 10.1894 11.5436 10.3552C11.8099 10.4821 11.8513 10.5196 11.8513 10.6344C11.8513 10.7919 11.7338 10.8635 11.4736 10.8635C11.2773 10.8635 11.0948 10.8322 10.8843 10.7633C10.8843 10.7633 10.798 11.3212 10.7939 11.3478C10.9433 11.3806 11.0766 11.4111 11.4783 11.4227C12.1723 11.4227 12.4928 11.1552 12.4928 10.5771C12.4928 10.2295 12.3588 10.0255 12.0292 9.872C11.7536 9.74397 11.7217 9.71528 11.7217 9.59724C11.7217 9.46049 11.8311 9.39061 12.0436 9.39061C12.1727 9.39061 12.349 9.40457 12.5162 9.4285L12.6098 8.84177C12.4396 8.81434 12.1813 8.79263 12.0309 8.79263C11.2953 8.79263 11.0405 9.18156 11.0429 9.64899Z" fill="#000066"/>
<path fill-rule="evenodd" clip-rule="evenodd" d="M18.7741 8.85936C18.9568 8.85936 19.1274 8.90743 19.3619 9.02731L19.4696 8.35219C19.3729 8.31381 19.0339 8.08887 18.7467 8.08887C18.3067 8.08887 17.9342 8.31022 17.6728 8.67473C17.291 8.5468 17.1338 8.80537 16.9416 9.06317L16.7707 9.10349C16.7836 9.01869 16.7954 8.93447 16.7917 8.84908H16.1874C16.105 9.63227 15.9588 10.4252 15.8444 11.2087L15.8145 11.3789H16.4725C16.5823 10.6565 16.6423 10.1941 16.6789 9.88086L16.9267 9.74188C16.9639 9.60222 17.0795 9.55532 17.3119 9.56103C17.2816 9.72599 17.2651 9.89976 17.2651 10.0795C17.2651 10.9073 17.7068 11.4226 18.4146 11.4226C18.5969 11.4226 18.7536 11.3984 18.9961 11.3315L19.1113 10.6227C18.8932 10.7311 18.7147 10.7822 18.5528 10.7822C18.1704 10.7822 17.939 10.4964 17.939 10.0243C17.939 9.33919 18.2829 8.85936 18.7741 8.85936Z" fill="#000066"/>
<path fill-rule="evenodd" clip-rule="evenodd" d="M24.3426 8.26822L24.1964 9.16693C24.0169 8.92745 23.8237 8.75397 23.5686 8.75397C23.2368 8.75397 22.9347 9.00866 22.7369 9.38373C22.4615 9.32587 22.1769 9.2275 22.1769 9.2275L22.1767 9.22992C22.1986 9.02029 22.2079 8.89275 22.2057 8.84914H21.6015C21.5194 9.63232 21.373 10.4253 21.2587 11.2088L21.2285 11.379H21.8867C21.9755 10.7951 22.0434 10.3098 22.0935 9.9254C22.3185 9.71955 22.431 9.54054 22.6579 9.55217C22.5572 9.79853 22.4985 10.0821 22.4985 10.3731C22.4985 11.0052 22.8143 11.4227 23.2926 11.4227C23.5337 11.4227 23.7186 11.3384 23.899 11.1434L23.868 11.3788H24.4903L24.9913 8.26822H24.3426ZM23.5201 10.7945C23.2962 10.7945 23.1829 10.6265 23.1829 10.2958C23.1829 9.79853 23.3948 9.44605 23.693 9.44605C23.919 9.44605 24.0416 9.62011 24.0416 9.94149C24.0416 10.443 23.8262 10.7945 23.5201 10.7945Z" fill="#000066"/>
<path fill-rule="evenodd" clip-rule="evenodd" d="M8.7397 11.1943H8.08206L8.45899 8.80312L7.61772 11.1943H7.16938L7.11404 8.81698L6.71796 11.1943H6.10236L6.61657 8.08381H7.56239L7.58881 10.0094L8.22701 8.08381H9.24846L8.7397 11.1943Z" fill="white"/>
<path fill-rule="evenodd" clip-rule="evenodd" d="M10.3589 10.0675C10.29 10.0594 10.2595 10.0571 10.2121 10.0571C9.83931 10.0571 9.65071 10.1864 9.65071 10.442C9.65071 10.5993 9.74281 10.7 9.88651 10.7C10.1544 10.7 10.3475 10.4418 10.3589 10.0675ZM10.8372 11.1944H10.2924L10.3048 10.9324C10.1386 11.1393 9.91677 11.2383 9.61548 11.2383C9.25904 11.2383 9.01471 10.9562 9.01471 10.5471C9.01471 9.93086 9.43979 9.57207 10.1694 9.57207C10.244 9.57207 10.3396 9.57895 10.4375 9.59175C10.4578 9.50801 10.4632 9.47244 10.4632 9.42718C10.4632 9.25981 10.3486 9.19749 10.0414 9.19749C9.71954 9.19361 9.45425 9.27473 9.34511 9.31088C9.3521 9.26901 9.43635 8.74208 9.43635 8.74208C9.76406 8.64477 9.98024 8.60804 10.2235 8.60804C10.7883 8.60804 11.0874 8.86497 11.0869 9.34994C11.0879 9.4799 11.0668 9.64069 11.0337 9.85119C10.9765 10.2172 10.854 11.0034 10.8372 11.1944Z" fill="white"/>
<path fill-rule="evenodd" clip-rule="evenodd" d="M19.6587 8.16757L19.551 8.8426C19.3161 8.7231 19.146 8.67474 18.9635 8.67474C18.4725 8.67474 18.128 9.15515 18.128 9.84036C18.128 10.3124 18.3595 10.5977 18.7419 10.5977C18.9039 10.5977 19.0828 10.547 19.3004 10.4381L19.1849 11.147C18.9427 11.2138 18.786 11.2382 18.6037 11.2382C17.8955 11.2382 17.4545 10.7228 17.4545 9.89521C17.4545 8.78319 18.0642 8.00601 18.9359 8.00601C19.2231 8.00601 19.5623 8.12919 19.6587 8.16757Z" fill="white"/>
<path fill-rule="evenodd" clip-rule="evenodd" d="M20.7203 10.0675C20.6517 10.0594 20.6212 10.0571 20.5739 10.0571C20.2013 10.0571 20.0126 10.1864 20.0126 10.442C20.0126 10.5993 20.1046 10.7 20.2482 10.7C20.516 10.7 20.7093 10.4418 20.7203 10.0675ZM21.199 11.1944H20.6541L20.6665 10.9324C20.5003 11.1393 20.2785 11.2383 19.9774 11.2383C19.6206 11.2383 19.3766 10.9562 19.3766 10.5471C19.3766 9.93086 19.8013 9.57207 20.5311 9.57207C20.6057 9.57207 20.701 9.57895 20.7989 9.59175C20.8193 9.50801 20.8246 9.47244 20.8246 9.42718C20.8246 9.25981 20.7104 9.19749 20.403 9.19749C20.0814 9.19361 19.8162 9.27473 19.7069 9.31088C19.7138 9.26901 19.7981 8.74208 19.7981 8.74208C20.1258 8.64477 20.3418 8.60804 20.5851 8.60804C21.1499 8.60804 21.4492 8.86497 21.4485 9.34994C21.4498 9.4799 21.4285 9.64069 21.3953 9.85119C21.3384 10.2172 21.2158 11.0034 21.199 11.1944Z" fill="white"/>
<path fill-rule="evenodd" clip-rule="evenodd" d="M13.7605 11.1559C13.5806 11.2133 13.4402 11.2382 13.2882 11.2382C12.9519 11.2382 12.7683 11.0425 12.7683 10.6827C12.7637 10.5704 12.8168 10.2768 12.8587 10.0082C12.8965 9.77165 13.1438 8.28185 13.1438 8.28185H13.7976L13.7211 8.66467H14.0568L13.9673 9.27253H13.6306C13.5547 9.75401 13.4464 10.353 13.4451 10.4324C13.4451 10.5633 13.5141 10.6199 13.6704 10.6199C13.7454 10.6199 13.8033 10.6124 13.8478 10.5959L13.7605 11.1559Z" fill="white"/>
<path fill-rule="evenodd" clip-rule="evenodd" d="M15.765 11.1359C15.5403 11.2056 15.3234 11.2385 15.094 11.2383C14.3619 11.2378 13.9807 10.8506 13.9807 10.1098C13.9807 9.24478 14.4659 8.60804 15.1244 8.60804C15.6639 8.60804 16.0081 8.9645 16.0081 9.524C16.0081 9.7094 15.9842 9.89035 15.9277 10.1459H14.6256C14.5815 10.5129 14.8136 10.6661 15.1938 10.6661C15.4277 10.6661 15.6388 10.617 15.8738 10.5065L15.765 11.1359ZM15.3975 9.63574C15.401 9.58283 15.4668 9.18421 15.0932 9.18421C14.8851 9.18421 14.736 9.34519 14.6754 9.63574H15.3975Z" fill="white"/>
<path fill-rule="evenodd" clip-rule="evenodd" d="M11.2319 9.4644C11.2319 9.78471 11.3852 10.0049 11.7329 10.1709C11.9991 10.2977 12.0404 10.3352 12.0404 10.4501C12.0404 10.6078 11.9229 10.679 11.6626 10.679C11.4664 10.679 11.2838 10.6481 11.0732 10.5794C11.0732 10.5794 10.9871 11.1369 10.983 11.1632C11.1324 11.1963 11.2658 11.2265 11.6673 11.2383C12.3614 11.2383 12.6819 10.9709 12.6819 10.3928C12.6819 10.045 12.5477 9.84111 12.2183 9.68798C11.9425 9.55957 11.9108 9.53117 11.9108 9.41293C11.9108 9.27618 12.0202 9.20582 12.2328 9.20582C12.3617 9.20582 12.5381 9.22036 12.7053 9.2442L12.7989 8.65756C12.6286 8.63033 12.3705 8.60804 12.2201 8.60804C11.4842 8.60804 11.2297 8.99706 11.2319 9.4644Z" fill="white"/>
<path fill-rule="evenodd" clip-rule="evenodd" d="M24.6799 11.1943H24.0578L24.0886 10.9588C23.9082 11.1539 23.7233 11.2382 23.4822 11.2382C23.0043 11.2382 22.688 10.8212 22.688 10.1884C22.688 9.34693 23.1783 8.63769 23.7582 8.63769C24.0133 8.63769 24.2064 8.74313 24.3863 8.98271L24.5322 8.08381H25.1808L24.6799 11.1943ZM23.7096 10.6098C24.0161 10.6098 24.2311 10.2584 24.2311 9.75737C24.2311 9.43589 24.1086 9.26125 23.8826 9.26125C23.5843 9.26125 23.3725 9.61383 23.3725 10.1113C23.3725 10.4424 23.4859 10.6098 23.7096 10.6098Z" fill="white"/>
<path fill-rule="evenodd" clip-rule="evenodd" d="M21.7913 8.66466C21.7091 9.44765 21.5628 10.2406 21.4484 11.0242L21.4184 11.1943H22.0762C22.3116 9.6473 22.3681 9.34541 22.7373 9.38311C22.796 9.06648 22.9054 8.7892 22.9869 8.64945C22.7115 8.5913 22.5576 8.74888 22.356 9.04836C22.3721 8.91878 22.4011 8.79308 22.3956 8.66466H21.7913Z" fill="white"/>
<path fill-rule="evenodd" clip-rule="evenodd" d="M16.3772 8.66466C16.2945 9.44765 16.1481 10.2406 16.0338 11.0242L16.004 11.1943H16.662C16.8974 9.6473 16.9538 9.34541 17.3224 9.38311C17.3815 9.06648 17.4911 8.7892 17.5724 8.64945C17.2972 8.5913 17.1431 8.74888 16.9418 9.04836C16.9577 8.91878 16.9869 8.79308 16.9812 8.66466H16.3772Z" fill="white"/>
</svg>
