<svg width="32" height="19" viewBox="0 0 32 19" fill="none" xmlns="http://www.w3.org/2000/svg">
<path d="M28.9744 0H2.0696C0.926592 0 0 0.937985 0 2.09505V16.7604C0 17.9174 0.926592 18.8554 2.0696 18.8554H28.9744C30.1174 18.8554 31.044 17.9174 31.044 16.7604V2.09505C31.044 0.937985 30.1174 0 28.9744 0Z" fill="#26337A"/>
<path fill-rule="evenodd" clip-rule="evenodd" d="M12.8802 12.4278L13.8347 6.43368H15.3605L14.406 12.4278H12.8802Z" fill="#FFFFFE"/>
<path fill-rule="evenodd" clip-rule="evenodd" d="M19.9404 6.58086C19.6388 6.46056 19.1643 6.32937 18.5732 6.32937C17.0648 6.32937 16.0029 7.14281 15.9941 8.3076C15.9845 9.16919 16.7518 9.6497 17.3303 9.93607C17.9249 10.2296 18.1246 10.4175 18.1222 10.6799C18.1181 11.0814 17.6477 11.2653 17.209 11.2653C16.5981 11.2653 16.2736 11.1748 15.7718 10.951L15.5755 10.8556L15.3622 12.1973C15.718 12.3643 16.3775 12.5092 17.062 12.5168C18.6652 12.5168 19.7069 11.7132 19.7191 10.4693C19.7246 9.78611 19.3181 9.26825 18.4375 8.84068C17.9043 8.56272 17.5771 8.37859 17.5808 8.09727C17.5812 7.84816 17.8573 7.58144 18.4549 7.58144C18.954 7.5733 19.3153 7.68997 19.5968 7.81178L19.7338 7.88029L19.9404 6.58086Z" fill="#FFFFFE"/>
<path fill-rule="evenodd" clip-rule="evenodd" d="M21.9718 10.3027C22.0982 9.9582 22.5796 8.62726 22.5796 8.62726C22.5707 8.6431 22.7053 8.28007 22.7824 8.0554L22.8854 8.57237C22.8854 8.57237 23.1781 10.0031 23.2384 10.3027H21.9718ZM23.8541 6.43985H22.675C22.3092 6.43985 22.0355 6.5459 21.8753 6.93673L19.6094 12.43H21.2119C21.2119 12.43 21.4734 11.691 21.5327 11.5289C21.7075 11.5289 23.2647 11.532 23.487 11.532C23.5327 11.7411 23.6728 12.43 23.6728 12.43H25.0889L23.8541 6.43985Z" fill="#FFFFFE"/>
<path fill-rule="evenodd" clip-rule="evenodd" d="M11.6 6.43874L10.1066 10.5253L9.94667 9.69462C9.66837 8.73751 8.80208 7.70011 7.83307 7.1803L9.19932 12.4226L10.8141 12.4217L13.2169 6.43874H11.6Z" fill="#FFFFFE"/>
<path fill-rule="evenodd" clip-rule="evenodd" d="M8.72072 6.43469H6.26024L6.23999 6.55889C8.15453 7.05542 9.42129 8.25393 9.94708 9.69465L9.41239 6.94043C9.32015 6.56057 9.05207 6.44797 8.72072 6.43469Z" fill="#EC982D"/>
</svg>
